# xmcd
# 
# Track frame offsets:
#     187
#     32980
#     61825
#     136502
#     150982
#     162917
#     211792
#     266740
# 
# Disc length: 3785
# 
# Revision: 2
# Processed by: cddbd v1.5.2PL0 Copyright (c) Steve Scherf et al.
# Submitted via: BonkEnc v1.0.8
# 
DISCID=5f0ec708
DTITLE=Various Artist - Sound Sketch 8: Imagination trip
DYEAR=0
DGENRE=Classical
TTITLE0=ボロディン: 中央アジアの草原にて
TTITLE1=ケテルビー: ペルシャの市場にて
TTITLE2=ラヴェル: ボレロ
TTITLE3=フォーレ: シチリアーノ
TTITLE4=ブラームス: ハンガリア舞曲第5番
TTITLE5=ドップラー: ハンガリー田園幻想曲
TTITLE6=スメタナ: 交響詩「わが祖国」より「モルダウ」
TTITLE7=レスピーギ:シチリアーノ
EXTD=
EXTT0=
EXTT1=
EXTT2=
EXTT3=
EXTT4=
EXTT5=
EXTT6=
EXTT7=
PLAYORDER=
